HIERARCHY
ROOT root
{
	OFFSET 0.000000 0.000000 0.000000
	CHANNELS 6 Xposition Yposition Zposition Zrotation Yrotation Xrotation
	JOINT lhip
	{
		OFFSET 0.058581 -0.082280 -0.017664
		CHANNELS 3 Zrotation Yrotation Xrotation
		JOINT lknee
		{
			OFFSET 0.043451 -0.386469 0.008037
			CHANNELS 3 Zrotation Yrotation Xrotation
			JOINT lankle
			{
				OFFSET -0.014790 -0.426874 -0.037428
				CHANNELS 3 Zrotation Yrotation Xrotation
				JOINT ltoe
				{
					OFFSET 0.041054 -0.060286 0.122042
					CHANNELS 3 Zrotation Yrotation Xrotation
					End Site
					{
						OFFSET 0.000000 0.000000 0.000000
					}
				}
			}
		}
	}
	JOINT rhip
	{
		OFFSET -0.060310 -0.090513 -0.013543
		CHANNELS 3 Zrotation Yrotation Xrotation
		JOINT rknee
		{
			OFFSET -0.043257 -0.383688 -0.004843
			CHANNELS 3 Zrotation Yrotation Xrotation
			JOINT rankle
			{
				OFFSET 0.019056 -0.420046 -0.034562
				CHANNELS 3 Zrotation Yrotation Xrotation
				JOINT rtoe
				{
					OFFSET -0.034840 -0.062106 0.130323
					CHANNELS 3 Zrotation Yrotation Xrotation
					End Site
					{
						OFFSET 0.000000 0.000000 0.000000
					}
				}
			}
		}
	}
	JOINT lowerback
	{
		OFFSET 0.004439 0.124404 -0.038385
		CHANNELS 3 Zrotation Yrotation Xrotation
		JOINT upperback
		{
			OFFSET 0.004488 0.137956 0.026820
			CHANNELS 3 Zrotation Yrotation Xrotation
			JOINT chest
			{
				OFFSET -0.002265 0.056032 0.002855
				CHANNELS 3 Zrotation Yrotation Xrotation
				JOINT lowerneck
				{
					OFFSET -0.013390 0.211636 -0.033468
					CHANNELS 3 Zrotation Yrotation Xrotation
					JOINT upperneck
					{
						OFFSET 0.010113 0.088937 0.050410
						CHANNELS 3 Zrotation Yrotation Xrotation
						End Site
						{
							OFFSET 0.000000 0.000000 0.000000
						}
					}
				}
				JOINT lclavicle
				{
					OFFSET 0.071702 0.114000 -0.018898
					CHANNELS 3 Zrotation Yrotation Xrotation
					JOINT lshoulder
					{
						OFFSET 0.122921 0.045205 -0.019046
						CHANNELS 3 Zrotation Yrotation Xrotation
						JOINT lelbow
						{
							OFFSET 0.255332 -0.015649 -0.022946
							CHANNELS 3 Zrotation Yrotation Xrotation
							JOINT lwrist
							{
								OFFSET 0.265709 0.012698 -0.007375
								CHANNELS 3 Zrotation Yrotation Xrotation
								End Site
								{
									OFFSET 0.000000 0.000000 0.000000
								}
							}
						}
					}
				}
				JOINT rclavicle
				{
					OFFSET -0.082954 0.112472 -0.023707
					CHANNELS 3 Zrotation Yrotation Xrotation
					JOINT rshoulder
					{
						OFFSET -0.113228 0.046853 -0.008472
						CHANNELS 3 Zrotation Yrotation Xrotation
						JOINT relbow
						{
							OFFSET -0.260127 -0.014369 -0.031269
							CHANNELS 3 Zrotation Yrotation Xrotation
							JOINT rwrist
							{
								OFFSET -0.269108 0.006794 -0.006027
								CHANNELS 3 Zrotation Yrotation Xrotation
								End Site
								{
									OFFSET 0.000000 0.000000 0.000000
								}
							}
						}
					}
				}
			}
		}
	}
}
MOTION
Frames: 14
Frame Time: 0.033333
-0.941567 0.633826 0.549316 91.670924 -0.583207 51.863007 26.237915 6.877848 -48.428334 -8.018548 6.257976 88.834679 -3.740714 -4.068998 -13.938218 0.000000 -0.000000 0.000000 -22.898311 -8.257566 -53.104431 -3.210245 -1.995059 93.574488 2.671598 -5.981047 -6.058750 0.000000 -0.000000 0.000000 -3.796736 2.600802 53.087820 1.281774 0.589693 4.730818 -0.116290 -0.859413 -1.606066 -0.678448 0.821137 -22.136276 3.570908 -6.033959 9.817968 -30.782970 -8.095380 0.211154 -42.811249 -12.157764 3.968760 102.073706 -79.977879 -77.228978 10.566123 -24.727565 -2.406324 33.799292 16.075494 4.332848 39.763726 17.457358 6.114434 -78.293700 73.885761 -55.231286 19.531056 14.625203 19.101917 
-0.942864 0.632483 0.550295 91.598569 -0.265833 51.443297 26.526520 6.633252 -47.933487 -7.784136 5.915927 88.582509 -4.129792 -4.654410 -14.066173 0.000000 -0.000000 0.000000 -22.632299 -8.069571 -52.467068 -3.714371 -2.134336 93.463293 2.567495 -5.447433 -6.098865 0.000000 -0.000000 0.000000 -3.621184 2.902147 53.106784 1.311336 0.380645 5.051847 0.030189 -0.588713 -1.457712 -0.609824 1.527056 -21.644612 3.942250 -6.379611 9.040883 -28.707157 -9.794759 0.563066 -43.422814 -14.001356 3.689749 107.016562 -79.551930 -82.147081 8.371131 -24.479059 -3.876744 31.740059 17.558558 3.894307 39.838714 19.000456 6.166977 -85.942977 74.500686 -62.301990 15.045853 15.431116 16.341003 
-0.944533 0.631777 0.550936 91.602902 -0.375030 51.091305 26.330427 6.820039 -47.572476 -7.088019 5.786431 88.404361 -4.415891 -5.079554 -13.699361 0.000000 -0.000000 0.000000 -22.636616 -8.044018 -52.070603 -4.584423 -1.917000 93.228762 2.712916 -4.418858 -6.069840 0.000000 -0.000000 0.000000 -3.435061 3.262629 53.473303 1.090364 0.248551 5.165483 0.125177 -0.591027 -1.661665 -0.625574 1.982747 -20.615455 4.558760 -7.212306 7.854646 -26.030112 -12.145839 -0.409309 -44.118829 -17.066955 4.060407 114.317901 -79.188028 -88.858276 7.372259 -23.508522 -6.934061 29.081319 19.445246 3.427494 41.446333 21.985603 6.436332 -96.394119 73.069345 -72.464732 7.687192 16.633907 12.146761 
-0.946612 0.631136 0.551735 91.673542 -0.100365 51.160613 26.192591 6.957491 -47.809073 -6.682164 5.378879 88.280042 -4.690404 -5.699294 -13.292083 0.000000 -0.000000 0.000000 -22.423052 -8.184489 -51.967329 -5.051574 -1.995988 92.875762 2.742318 -4.049395 -5.643259 0.000000 -0.000000 0.000000 -3.122225 3.436790 53.704651 0.988352 0.084091 4.586213 0.312148 -0.225113 -2.305035 -0.547686 1.372745 -19.167888 4.801701 -7.467573 8.314343 -23.829415 -15.851651 -1.563673 -43.964980 -21.151620 5.672167 115.317204 -77.985771 -91.632509 13.327092 -24.702792 -8.350350 28.004007 22.704047 3.080752 40.883309 26.213686 6.254188 -98.237334 70.832168 -79.214418 -0.726367 20.100356 14.834623 
-0.947056 0.630910 0.552467 92.001438 -0.169705 50.994707 26.413697 6.587274 -47.561636 -6.358326 5.866995 88.144415 -4.962591 -6.506189 -13.334287 0.000000 -0.000000 0.000000 -22.929527 -8.270701 -51.711061 -5.368558 -2.175602 92.915238 2.998293 -3.639523 -5.443273 0.000000 -0.000000 0.000000 -3.396638 3.495307 53.647373 1.008971 -0.262524 3.715840 0.281150 -0.199021 -2.050877 -0.242694 1.590611 -17.675808 4.333364 -7.451082 9.158410 -21.294773 -18.329917 -3.374503 -43.629107 -26.177968 6.823045 111.277311 -76.673990 -88.503804 16.250567 -24.418900 -10.129429 26.673757 25.235024 2.426752 40.513175 32.020630 6.866909 -93.835669 68.124163 -77.234107 -5.289958 20.340002 17.654149 
-0.946183 0.631710 0.552557 92.045547 0.075108 51.007443 26.537031 6.886906 -47.765001 -6.751997 5.948879 88.258266 -4.644782 -6.121199 -13.116248 0.000000 -0.000000 0.000000 -22.757838 -8.721541 -51.576791 -5.129923 -2.235625 92.947553 2.398223 -3.948482 -5.614395 0.000000 -0.000000 0.000000 -3.221504 3.218760 53.539069 1.039450 -0.688861 2.566122 0.449738 -0.071201 -2.481113 -0.824369 1.329930 -15.794784 4.567759 -7.179806 9.991436 -18.307388 -21.912385 -3.874570 -44.183319 -29.843742 6.506570 101.707899 -74.730873 -78.604759 18.101305 -21.063756 -15.888927 23.008806 28.303936 1.815020 39.993378 35.334509 5.126697 -88.083656 66.536649 -68.204015 -4.481048 16.646455 11.721603 
-0.944254 0.631821 0.553111 91.980093 0.156454 51.336486 26.656341 7.284018 -47.953831 -7.396490 5.976221 88.113051 -4.629600 -5.678955 -13.014100 0.000000 -0.000000 0.000000 -22.536451 -9.116626 -51.893673 -4.533325 -2.138668 92.948233 2.242343 -4.074636 -5.532635 0.000000 -0.000000 0.000000 -3.191401 3.209784 53.023875 1.103600 -1.091601 1.889918 0.657328 0.105567 -3.291637 -1.487303 1.392813 -14.182480 5.005297 -6.711145 10.050952 -15.432696 -25.025884 -4.162369 -44.259333 -32.298402 5.663656 91.052157 -72.225651 -67.209413 18.276529 -19.152717 -18.449356 20.154475 31.326096 1.594861 37.731437 37.086643 2.195214 -81.271733 64.901129 -56.995216 -1.101494 13.923296 8.363953 
-0.941624 0.631880 0.554003 91.833678 0.279166 51.410970 26.749937 7.770943 -47.897702 -7.769352 5.705042 88.290845 -4.343050 -5.833265 -13.134417 0.000000 -0.000000 0.000000 -22.108920 -9.470160 -51.979731 -3.691647 -1.834097 93.198734 1.698853 -4.302034 -5.381002 0.000000 -0.000000 0.000000 -3.063759 3.377408 52.545690 1.147671 -1.256781 1.349923 0.970700 0.160046 -3.443689 -1.821741 0.942219 -13.892151 5.299134 -6.214413 10.341387 -12.924470 -27.418578 -5.086379 -44.432021 -33.961409 4.967985 82.329891 -70.339248 -57.632712 18.984696 -18.696764 -17.102723 17.364675 33.573944 0.890987 37.028589 38.214914 0.420755 -76.572736 63.116950 -51.177946 0.659814 13.777644 8.665262 
-0.939232 0.632302 0.554368 91.816046 0.410608 51.525270 26.678277 8.044211 -48.084112 -7.851132 5.558630 88.575878 -4.457799 -5.519631 -13.289223 0.000000 -0.000000 0.000000 -22.121741 -9.698522 -51.873769 -3.843426 -2.097774 93.045555 1.764808 -4.882936 -5.892099 0.000000 -0.000000 0.000000 -2.874320 3.305794 51.930399 1.178585 -1.394311 1.096836 1.088369 0.143992 -3.538869 -2.175573 0.809914 -13.761616 5.394333 -6.433339 10.343725 -11.497078 -28.739068 -5.391080 -43.956848 -35.054647 4.333663 76.629604 -68.880531 -51.507196 19.131312 -18.893880 -16.260621 16.155999 34.354638 0.491058 36.420096 39.352505 -0.583600 -72.239675 62.402750 -47.190984 0.279401 13.862047 8.392356 
-0.938601 0.632320 0.554441 91.675621 0.577608 51.851328 26.866205 8.151305 -48.402695 -8.064487 5.590718 88.648888 -4.165696 -5.271396 -13.402592 0.000000 -0.000000 0.000000 -21.972329 -9.757146 -52.150440 -3.694127 -2.311941 93.083834 1.626491 -4.957144 -6.024376 0.000000 -0.000000 0.000000 -2.900164 3.086341 51.564787 1.300619 -1.492744 0.522535 1.115181 0.275724 -3.382058 -2.447147 0.980798 -14.059939 5.634717 -6.170180 10.279041 -10.854376 -29.107739 -5.487253 -43.060562 -35.378264 3.851982 73.225059 -68.342188 -48.005842 18.341431 -18.388172 -15.998581 15.808481 34.809534 0.679953 35.693004 39.977684 -1.169051 -69.856867 62.087966 -45.113831 1.027139 13.669475 6.932775 
-0.938713 0.632584 0.554434 91.652618 0.562307 51.742262 26.749850 8.005482 -48.308620 -7.960572 5.379965 88.697955 -4.348617 -5.365834 -13.418579 0.000000 -0.000000 0.000000 -21.988236 -9.738185 -52.057654 -3.641256 -2.283066 93.075492 1.598023 -4.870221 -6.010725 0.000000 -0.000000 0.000000 -2.772128 3.237271 51.511629 1.383290 -1.523164 0.947166 1.219647 0.170959 -3.607881 -2.443069 1.223145 -14.328815 5.533942 -6.319992 9.648857 -10.264002 -29.710939 -5.673840 -42.361731 -35.202629 3.387741 70.887200 -67.847273 -45.696443 16.837905 -18.726970 -15.164333 15.432305 35.136175 0.719251 34.813021 39.878302 -1.964537 -68.595673 61.975603 -43.605741 2.000903 13.749804 7.149449 
-0.939863 0.631973 0.553990 91.535874 0.595143 51.664550 26.862400 7.910881 -48.244496 -7.768036 5.412375 88.568012 -4.422561 -5.211569 -13.419757 0.000000 -0.000000 0.000000 -21.936221 -9.505408 -52.141144 -3.826730 -2.470750 93.084247 1.883709 -4.925424 -5.922383 0.000000 -0.000000 0.000000 -2.834268 3.370667 51.857626 1.509892 -1.386093 1.186191 1.313937 0.249579 -3.727923 -2.220734 1.675702 -15.666991 5.172973 -6.947495 10.207896 -10.029617 -29.384451 -6.082342 -41.952499 -35.435684 3.396301 67.315871 -67.840671 -41.916360 16.382128 -19.447049 -13.767787 15.676433 34.884251 0.425144 34.002091 39.944652 -2.007969 -66.400087 61.957043 -41.850494 2.351796 14.675683 7.285141 
-0.941517 0.631992 0.553619 91.580571 0.561621 51.771653 26.598960 7.644908 -48.438537 -7.869195 5.171966 88.407042 -4.345113 -4.914476 -13.338641 0.000000 -0.000000 0.000000 -21.995077 -9.637705 -52.323527 -3.920349 -2.514855 92.894856 2.011150 -4.830164 -5.719786 0.000000 -0.000000 0.000000 -2.825381 3.501043 52.260846 1.599636 -1.407475 0.715877 1.451042 0.213869 -3.343573 -2.178681 1.645577 -16.159796 4.943607 -6.878395 9.982220 -10.317723 -29.678281 -5.715452 -40.667395 -35.036652 2.841948 64.488481 -67.632104 -39.144638 16.671368 -20.163217 -12.178272 16.205308 35.022528 0.846889 32.297026 39.618131 -2.975721 -64.228232 62.162891 -39.951436 2.214664 14.999577 8.430276 
-0.943601 0.631945 0.554378 91.511438 0.715998 51.474216 26.422734 7.592399 -48.255151 -7.891714 4.792812 88.262221 -4.446165 -4.501423 -13.081253 0.000000 -0.000000 0.000000 -21.819301 -9.583731 -51.968614 -3.700467 -2.519258 92.662027 1.997068 -4.879182 -5.405351 0.000000 -0.000000 0.000000 -2.490815 3.262563 53.147140 1.420778 -1.398536 0.572409 1.438295 0.276057 -3.136312 -2.138251 1.634289 -16.510207 5.145763 -6.762484 9.492503 -10.204887 -30.220803 -5.717098 -39.757075 -33.847307 2.526125 62.536537 -67.698819 -36.225760 16.205646 -20.225997 -9.737464 15.907863 35.623523 1.010052 31.218301 38.810650 -3.707476 -61.947589 62.291416 -37.530029 0.773601 15.239671 10.128697 
